{"asset":{"generator":"3D Builder","version":"2.0"},"scene":0,"scenes":[{"nodes":[0]}],"nodes":[{"mesh":0,"matrix":[0.99999994039535522,0,0,0,0,-1.1920928244535389E-7,-0.99999982118606567,0,0,0.99999982118606567,-1.1920928244535389E-7,0,0,-0.00034299996332265437,4.0888785413084605E-11,1]}],"meshes":[{"primitives":[{"attributes":{"POSITION":0},"mode":4,"indices":8,"material":0},{"attributes":{"POSITION":1},"mode":4,"indices":9,"material":1},{"attributes":{"POSITION":2},"mode":4,"indices":10,"material":2},{"attributes":{"POSITION":3},"mode":4,"indices":11,"material":3},{"attributes":{"POSITION":4},"mode":4,"indices":12,"material":4},{"attributes":{"POSITION":5},"mode":4,"indices":13,"material":5},{"attributes":{"POSITION":6},"mode":4,"indices":14,"material":6},{"attributes":{"POSITION":7},"mode":4,"indices":15,"material":7}]}],"materials":[{"name":"color_40919","pbrMetallicRoughness":{"baseColorFactor":[0,0.34670409560203552,0.67954254150390625,1],"metallicFactor":0,"roughnessFactor":1},"alphaMode":"OPAQUE"},{"name":"color_2829873","pbrMetallicRoughness":{"baseColorFactor":[0.024157630279660225,0.027320891618728638,0.030713440850377083,1],"metallicFactor":0,"roughnessFactor":1},"alphaMode":"OPAQUE"},{"name":"color_10988977","pbrMetallicRoughness":{"baseColorFactor":[0.38642951846122742,0.41788515448570251,0.43965724110603333,1],"metallicFactor":0,"roughnessFactor":1},"alphaMode":"OPAQUE"},{"name":"color_11593967","pbrMetallicRoughness":{"baseColorFactor":[0.43415370583534241,0.80695235729217529,0.86315727233886719,1],"metallicFactor":0,"roughnessFactor":1},"alphaMode":"OPAQUE"},{"name":"color_12568524","pbrMetallicRoughness":{"baseColorFactor":[0.52099567651748657,0.57112491130828857,0.60382741689682007,1],"metallicFactor":0,"roughnessFactor":1},"alphaMode":"OPAQUE"},{"name":"color_14541540","pbrMetallicRoughness":{"baseColorFactor":[0.72305524349212646,0.76052463054656982,0.77582234144210815,1],"metallicFactor":0,"roughnessFactor":1},"alphaMode":"OPAQUE"},{"name":"color_15277357","pbrMetallicRoughness":{"baseColorFactor":[0.8148466944694519,0.01228648703545332,0.026241222396492958,1],"metallicFactor":0,"roughnessFactor":1},"alphaMode":"OPAQUE"},{"name":"color_16448250","pbrMetallicRoughness":{"baseColorFactor":[0.95597350597381592,0.95597350597381592,0.95597350597381592,1],"metallicFactor":0,"roughnessFactor":1},"alphaMode":"OPAQUE"}],"accessors":[{"bufferView":0,"byteOffset":0,"count":224,"componentType":5126,"type":"VEC3","min":[-0.0039679999463260174,-0.0065270001068711281,0.050246000289916992],"max":[0.012244001030921936,-0.0061471001245081425,0.058858003467321396]},{"bufferView":0,"byteOffset":2688,"count":5147,"componentType":5126,"type":"VEC3","min":[-0.027921000495553017,-0.023682301864027977,0.00034300002153031528],"max":[0.036618001759052277,0.069086998701095581,0.064363405108451843]},{"bufferView":0,"byteOffset":64452,"count":13247,"componentType":5126,"type":"VEC3","min":[-0.025867002084851265,-0.023852000012993813,0.00034300002153031528],"max":[0.034717999398708344,0.0680738016963005,0.071619004011154175]},{"bufferView":0,"byteOffset":223416,"count":63,"componentType":5126,"type":"VEC3","min":[-0.00531300064176321,0.031863003969192505,0.062625303864479065],"max":[0.013052000664174557,0.056456003338098526,0.071257010102272034]},{"bufferView":0,"byteOffset":224172,"count":4854,"componentType":5126,"type":"VEC3","min":[-0.027597000822424889,-0.0051320004276931286,0.0098566003143787384],"max":[0.036618001759052277,0.051111001521348953,0.052765000611543655]},{"bufferView":0,"byteOffset":282420,"count":14914,"componentType":5126,"type":"VEC3","min":[-0.029441000893712044,-0.033132001757621765,0.001610000035725534],"max":[0.040220003575086594,0.0702269971370697,0.053642001003026962]},{"bufferView":0,"byteOffset":461388,"count":14145,"componentType":5126,"type":"VEC3","min":[-0.015208400785923004,0.0013260000851005316,0.024269901216030121],"max":[0.024554502218961716,0.071363098919391632,0.07167680561542511]},{"bufferView":0,"byteOffset":631128,"count":20893,"componentType":5126,"type":"VEC3","min":[-0.027553001418709755,-0.012606000527739525,0.001610000035725534],"max":[0.0364840030670166,0.072506003081798553,0.07167680561542511]},{"bufferView":1,"byteOffset":0,"count":822,"componentType":5125,"type":"SCALAR"},{"bufferView":1,"byteOffset":3288,"count":23505,"componentType":5125,"type":"SCALAR"},{"bufferView":1,"byteOffset":97308,"count":68316,"componentType":5125,"type":"SCALAR"},{"bufferView":1,"byteOffset":370572,"count":204,"componentType":5125,"type":"SCALAR"},{"bufferView":1,"byteOffset":371388,"count":18747,"componentType":5125,"type":"SCALAR"},{"bufferView":1,"byteOffset":446376,"count":76581,"componentType":5125,"type":"SCALAR"},{"bufferView":1,"byteOffset":752700,"count":64581,"componentType":5125,"type":"SCALAR"},{"bufferView":1,"byteOffset":1011024,"count":91152,"componentType":5125,"type":"SCALAR"}],"bufferViews":[{"buffer":0,"byteOffset":0,"byteLength":881844,"byteStride":12,"target":34962},{"buffer":0,"byteOffset":881844,"byteLength":1375632,"target":34963}],"buffers":[{"byteLength":2257476,"uri":"tinker.bin"}]}